Clash Of The Titans 2010 DVDRIP H264 FEEL-FREE

screens
 
http://img231.imageshack.us/slideshow/webplayer.php?id=clash1r.png

...........................................................................

Plot:
The mortal son of the god Zeus embarks on a perilous journey to stop the underworld and its minions from spreading their evil to Earth as well as the heavens
................................................................

TiTLE...... Clash of the Titans
YEAR....... 2010
GENRE...... Action | Adventure | Drama | Fantasy
iMDB URL... http://www.imdb.com/title/tt0800320/
Encoder: Tony2
Language: English
Subtitles: Romana
..........................................
General
Complete name : Clash Of The Titans 2010 DVDRIP H264 FEEL-FREE
Format : MPEG-4
Format profile : Base Media
Codec ID : isom
File size : 707 MiB
Duration : 1h 46mn
Overall bit rate : 931 Kbps
............................................
Video
ID : 1
Format : AVC
Format/Info : Advanced Video Codec
Format profile : Main@L1.3
Format settings, CABAC : Yes
Format settings, ReFrames : 1 frame
Codec ID : avc1
Codec ID/Info : Advanced Video Coding
Duration : 1h 46mn
Bit rate mode : Variable
Bit rate : 798 Kbps
Width : 720 pixels
Height : 304 pixels
Display aspect ratio : 2.35:1
Frame rate mode : Constant
Frame rate : 29.970 fps
Resolution : 24 bits
Colorimetry : 4:2:0
Scan type : Progressive
Bits/(Pixel*Frame) : 0.122
Stream size : 606 MiB (86%)
..............................................
Audio
ID : 2
Format : AAC
Format/Info : Advanced Audio Codec
Format version : Version 4
Format profile : LC
Format settings, SBR : No
Codec ID : 40
Duration : 1h 46mn
Bit rate mode : Variable
Bit rate : 128 Kbps
Channel(s) : 2 channels
Channel positions : L R
Sampling rate : 44.1 KHz
Resolution : 16 bits
Stream size : 97.1 MiB (14%)
...............................................
